/* XPM */
static char *_d05c5ad22614c39d6599bcc205e9df5pn2MAYa5LgV37ZKv[] = {
/* columns rows colors chars-per-pixel */
"32 32 103 2 ",
"   c None",
".  c #060402",
"X  c #0A0704",
"o  c #0E0905",
"O  c #0D0B0B",
"+  c #130C06",
"@  c #190F07",
"#  c #110F0D",
"$  c #171006",
"%  c #1A1007",
"&  c #13100D",
"*  c #1C1209",
"=  c #151413",
"-  c #1A1714",
";  c #1F1915",
":  c #1C1B1A",
">  c #22160B",
",  c #26190D",
"<  c #2B1C0E",
"1  c #311F0E",
"2  c #251C11",
"3  c #2B1E10",
"4  c #211E1D",
"5  c #301F10",
"6  c #37240F",
"7  c #2E2112",
"8  c #22201E",
"9  c #2E251E",
"0  c #2F281F",
"q  c #342312",
"w  c #3A2613",
"e  c #3D2915",
"r  c #382718",
"t  c #3C2C19",
"y  c #252322",
"u  c #292725",
"i  c #2A2826",
"p  c #2C2B2A",
"a  c #372B22",
"s  c #302E2C",
"d  c #32302E",
"f  c #38322C",
"g  c #343333",
"h  c #383635",
"j  c #3A3835",
"k  c #3C3B3B",
"l  c #432C16",
"z  c #492D17",
"x  c #442E19",
"c  c #492F18",
"v  c #493117",
"b  c #4B321A",
"n  c #52361C",
"m  c #53391D",
"M  c #5A3E1F",
"N  c #4C3520",
"B  c #4D3820",
"V  c #523720",
"C  c #553C22",
"Z  c #5A3E23",
"A  c #463C34",
"S  c #4B3E34",
"D  c #403E3D",
"F  c #5C4225",
"G  c #4C4037",
"H  c #42403F",
"J  c #48413A",
"K  c #504339",
"L  c #53483E",
"P  c #604425",
"I  c #634529",
"U  c #674A2D",
"Y  c #694A2D",
"T  c #454343",
"R  c #484746",
"E  c #4B4847",
"W  c #4D4B4A",
"Q  c #554C46",
"!  c #504F4E",
"~  c #53514F",
"^  c #545252",
"/  c #585755",
"(  c #5B5957",
")  c #5D5B5A",
"_  c #605246",
"`  c #615E5D",
"'  c #62605F",
"]  c #656362",
"[  c #696664",
"{  c #6B6866",
"}  c #6D6B6A",
"|  c #716E6E",
" . c #73716F",
".. c #757372",
"X. c #797774",
"o. c #7C7976",
"O. c #7D7B7B",
"+. c #807D76",
"@. c #817F7D",
"#. c #82807F",
"$. c #89857F",
"%. c #858483",
"&. c #898684",
/* pixels */
"                          ' ' ' O.O.| (                         ",
"                    ] ( ] [ W ( @.&.O.[ @.` }                   ",
"                k ] } } / ' W R O.O.] / ..} %.) |               ",
"            ../ j R ` [ [ } ) R X. .] ] ] ( ) } ..(             ",
"          ) ~ ` ' g W ' [ ) W s ) [ ( ' ! / ^ } | W k           ",
"        ] k k W ( T d H h : O X : : 4 i h T [ } ^ H j T         ",
"        s T R ( ) H : & & $ > + t 7 r 3 2 p ( / R g ` ] ^       ",
"      j j p k ] T : O + t e l * F n C b t > 8 h k ! X...H ..    ",
"    [ R ] ) T g : X @ > Z l l * F m M M F w , = p ] } ) ( !     ",
"    R ] ..[ W : o @ 3 q I z l $ F M M m F v t * y ) | ..[ D X.  ",
"    T ! ( ' j O % < l z Y v z @ C n m b F n b 7 2 R O.} ) R H   ",
"  / D ! ( ^ : o 7 e c c Y v l @ C b b v M b n b r u ^ ( W g p   ",
"  d u g j g # % t b z n Y z l + C b b l M b n C b - = 4 p g d   ",
"  p g k g : + , B m z n U z l @ C x l w n v b F V - 4 ^ | ] D   ",
"  T ) [ ` 4 # < F C b n I z w @ C v e 6 m z c F C 3 y ] } ) h   ",
"  T T ~ ^ - @ w F C b n Z z l + C b w 1 b x b Z n 5 4 ! W T p   ",
"  ) ' } ] : % l F b l b n x e $ C c w 1 n b v C m w d  .} ] E   ",
"  R W ) ) - * c F z z z V x w % C c w < b v b M m w p / ( R T   ",
"  h D W k O ; S _ Q Q Q L A a $ S A J f G G G G S 9 y T T R D   ",
"  = = : : O p ) o.#.@.#.$.o.[ p &.+.o.` ' } { [ ' H : : y p :   ",
"  = 4 u 8 # 4 s j T E s } } d = A ~ #.j u W d y k g : : y p :   ",
"  p k W H O X @ > @ @ Q ( R W . u } T / * $ + + @ + : E { [ R   ",
"  s H ] ! # @ e b w < J } ' ( + 0 } ) } e 6 , < w < y ^ ) / k   ",
"  p g W g O * t C t 6 2 H ( 0 + r d ) h e e 1 7 z q : k h k p   ",
"  H ! W g O @ r b r < , , % < + r > O > l q 5 3 l 6 i ( ( / R   ",
"  : g k s O @ q x 7 < < r r 3 o 7 , > 3 e q < 5 e 1 p j R k p   ",
"  k ) ' ~ # @ 2 l 7 < , q q 3 o 7 , > > q q 3 2 q < y h k g :   ",
"  h H W k O + > t 3 , > 7 3 3 X 2 2 > * 3 5 , , 3 , : ~ W R j   ",
"  ! ] | / = o > w > > > 7 < , X 2 , * % , < < < 3 > y ] | ] )   ",
"  R ( ^ E & o * < > > * < < > . , , @ $ , , , < 3 - y W ` ! T   ",
"  p R D g X X @ < * > * 7 < > . , * + $ , > > < 5 , y k W T s   ",
"  %.%.%.%.%.%.&.&.%.%.%.%.#.%.#.#.%.O.%.&.%.%.&.&.&.%.%.%.%.&.  "
};
