/* XPM */
static char *_511c1b2e93240778aac3a1ea21d4f15GMggu2E3nb6bdqg9[] = {
/* columns rows colors chars-per-pixel */
"32 32 141 2 ",
"   c None",
".  c #060402",
"X  c #0A0704",
"o  c #0E0905",
"O  c #0D0B0B",
"+  c #130C06",
"@  c #190F07",
"#  c #110F0D",
"$  c #171006",
"%  c #1A1007",
"&  c #13100D",
"*  c #1C1209",
"=  c #151413",
"-  c #1A1714",
";  c #1F1915",
":  c #1C1B1A",
">  c #22160B",
",  c #26190D",
"<  c #2B1C0E",
"1  c #311F0E",
"2  c #251C11",
"3  c #2B1E10",
"4  c #211E1D",
"5  c #301F10",
"6  c #37240F",
"7  c #2E2112",
"8  c #22201E",
"9  c #2E251E",
"0  c #2F281F",
"q  c #342312",
"w  c #3A2613",
"e  c #3D2915",
"r  c #382718",
"t  c #3C2C19",
"y  c #252322",
"u  c #292725",
"i  c #2A2826",
"p  c #2C2B2A",
"a  c #372B22",
"s  c #302E2C",
"d  c #32302E",
"f  c #38322C",
"g  c #343333",
"h  c #383635",
"j  c #3A3835",
"k  c #3C3B3B",
"l  c #432C16",
"z  c #492D17",
"x  c #442E19",
"c  c #492F18",
"v  c #493117",
"b  c #4B321A",
"n  c #52361C",
"m  c #53391D",
"M  c #5A3E1F",
"N  c #4C3520",
"B  c #4D3820",
"V  c #523720",
"C  c #553C22",
"Z  c #5A3E23",
"A  c #463C34",
"S  c #4B3E34",
"D  c #403E3D",
"F  c #5C4225",
"G  c #4C4037",
"H  c #42403F",
"J  c #48413A",
"K  c #504339",
"L  c #53483E",
"P  c #604425",
"I  c #634529",
"U  c #674A2D",
"Y  c #694A2D",
"T  c #454343",
"R  c #484746",
"E  c #4B4847",
"W  c #4D4B4A",
"Q  c #554C46",
"!  c #504F4E",
"~  c #53514F",
"^  c #545352",
"/  c #585755",
"(  c #5B5957",
")  c #5D5B5A",
"_  c #605246",
"`  c #615E5D",
"'  c #62605F",
"]  c #646362",
"[  c #696664",
"{  c #6B6866",
"}  c #6D6B6A",
"|  c #716E6E",
" . c #73716F",
".. c #757373",
"X. c #797674",
"o. c #797774",
"O. c #7B7977",
"+. c #7D7A77",
"@. c #7D7A74",
"#. c #7B7979",
"$. c #7D7B7A",
"%. c #7E7D7C",
"&. c #7F7E7E",
"*. c #7C7C7C",
"=. c #807D76",
"-. c #807F7E",
";. c #817F7D",
":. c #82807F",
">. c #89857F",
",. c #838080",
"<. c #878786",
"1. c #858383",
"2. c #8A8787",
"3. c #898684",
"4. c #898887",
"5. c #8A8886",
"6. c #8F8E8C",
"7. c #8A8989",
"8. c #9A9999",
"9. c #A09F9F",
"0. c #9FA09F",
"q. c #A2A2A1",
"w. c #A5A5A4",
"e. c #A5A5A5",
"r. c #A7A7A7",
"t. c gray71",
"y. c #B1B1B1",
"u. c #BCBCBC",
"i. c #BFBEBD",
"p. c #C0BFBF",
"a. c #C3C2C1",
"s. c gray76",
"d. c #C5C5C5",
"f. c #CBCBCA",
"g. c #CFCFCE",
"h. c #D5D4D3",
"j. c gray84",
"k. c #D7D6D6",
"l. c #D7D7D6",
"z. c gainsboro",
"x. c #DDDCDB",
/* pixels */
"                    f.e...' ) ' #.%.} ( 8.p.                    ",
"                s.,.] ( ] [ ~ ( ,.4.#.{ &.) } t.                ",
"              6.k ] } } / ' W T #.#.[ / X.} <.( | d.            ",
"          l.../ k R ) [ ] } ` R #. .] ] ] ( ) } ..( q.          ",
"        h.) ~ ` ' d W ' [ ) W s ) [ ( ' W / ^ }  .W D 8.z.      ",
"      l.] k k W / T d H h : O X : : 8 i h R [ } ^ H j T e.      ",
"      4.s T R ( ) T : & & $ > + t q q < 2 p ( / T g ` ] ! u.    ",
"    i.j j p k ] R : o + t e e > F n Z b t * y h k ~ ....T X.j.  ",
"    [ R ] ) T h - X % , Z z l * F m M M F w , = p ] { ) ) ! r.  ",
"  g.R ] ..[ W : o @ 3 q I l l $ F M M m F z t * y )  ...[ D X.  ",
"  2.T ! ( ` k O * 3 l l Y v z @ C n m b F n b 7 2 R *.} ) R H s.",
"  / D ! ) ! : o 3 e c c Y z l @ C b b v M b n b r u ^ ( ! g i 0.",
"x.d u g j g # % x b z n Y z l + C b b e M b m C x - : 4 p g s 7.",
"  p g k g : + , B b z n Y z l @ C b l w n v b F V - : ^ | ] D &.",
"  T ) [ ` 4 + < F F b n I z w @ C x w 6 m l b Z C 3 y ] } ) h *.",
"  T T ~ ^ - & w F C b b P l l + C b w 6 b z b Z B q 4 ! R T i *.",
"  ) ] } ] : % x F b l n n z l $ C b w 1 m b v Z n w g  .} ] R ] ",
"  R W ( ) - * c F z l z V x q $ C z w < v v b C n w p / ( R T ^ ",
"  h H W k O 2 A _ Q Q Q L A 0 % S A J f G S G K G 9 y H T T H ^ ",
"  = = : : O p ) o.:.;.:.>.@.{ p 3.=.@.` ' } { [ ' H - 4 y p : | ",
"  = 4 y y O : d j T E s } } d = A ~ -.j u W d y k g : : u p : *.",
"  p k ! H # X @ > @ @ Q ( R W . u } T ( > + + + + O 4 R { ] T ..",
"  s H ] ! O @ l N w < D } ] ( o a } ' } w 6 < < r < u ^ ) / k ..",
"  p h R g O * e V t 6 3 H ( 0 + 7 d ) g e e 7 3 l q : k g k p ..",
"  H ! ! g O * r x t < , , % < + 9 > + , l w 3 5 l 6 i ( ( / R ..",
"  : g h p O @ 5 x q < < r r < + q , > 2 e q < 3 t 6 i j R k i X.",
"  k ) ' ~ # @ 3 l 7 < , 7 q 3 o 7 > > > q q 3 2 q < y h k g : *.",
"  h H ! k O + > t 3 , , 7 7 < X 2 , > * 3 3 , , < , : ~ ! T k *.",
"  ~ '  ./ = X > q , > * 7 < > X 2 , * % , < < < 3 > y ] } ] ) &.",
"  T ) ^ R = X * < > > * 3 < > X , < @ $ , , , < 3 - y W ) ! T &.",
"  p R D g X o @ < * > * 7 , > X , * + $ > > > < 3 < : k R T p 1.",
"  <.1.1.1.1.1.3.3.1.3.1.1.:.:.:.1.,.-.,.3.1.3.<.2.<.1.<.<.<.<.y."
};
