/* XPM */
static char *c663022b2d3948008388868fd90710desIr4F19juJizLYgy[] = {
/* columns rows colors chars-per-pixel */
"34 32 30 1 ",
"  c None",
". c black",
"X c #010101",
"o c #020202",
"O c gray8",
"+ c #F44235",
"@ c #F44336",
"# c #F44337",
"$ c #F44437",
"% c #F44538",
"& c #F4463A",
"* c #F5473A",
"= c #F14A3E",
"- c #F54B3F",
"; c #AFAFAF",
": c #BCBCBC",
"> c #DFDFDF",
", c #E1E1E1",
"< c #E9E9E9",
"1 c gray92",
"2 c gray94",
"3 c #F9F9F9",
"4 c #FEFBFB",
"5 c #FFFBFB",
"6 c gray99",
"7 c #FDFDFD",
"8 c #FFFDFD",
"9 c #FEFEFE",
"0 c #FFFEFE",
"q c white",
/* pixels */
"           ..........             ",
"           ..........             ",
"      .....,,,,,,,,,,.....        ",
"      .....qqqqqqqqqq.....        ",
"    ..;,>><qqqqqqqqqq<,,,;..      ",
"    ..:qqqqqqqqqqqqqqqqqq:..      ",
"   ...,qqqqqqqqqqqqqqqqqqq:;..    ",
"  ..,qqqqqqqqqqqqqqqqqqqqqq,..    ",
"  ..>q3qqq3qqqqqqqqqqqqqqqq,..    ",
"  ..,q..qq..qqqqqqqqqqqqqqq,..    ",
"  .o<q..qq..qqqqqqqqqqqqqqq<..    ",
"..qqqq..qq..qqqqqqqO....qqqq1,..  ",
"..qqqq..qq..qqqqqqq.....,2qqq,..  ",
"..qqqqqqqqqqqqqqq..3qqqq..qqq,..  ",
"..qqqqqqqqqqqqqqq..qqqqq..qqq,..  ",
"..qq-@qq@@qq$@qqqqqqqqqq..qqq,..  ",
"..qq@@qq@@qq%@qqqqqqqqqq..qqq,..  ",
"..qq@@@@@@@@@@4qqqqqq3..qqqqqqqq..",
"..qq@@@@@@@@@@4qqqqqqq..qqqqqqqq..",
"..qq@@@@@@@@@@qqqqqqqqqqqqqqqqqq..",
"..qq@@@@@@@@@@@@qqqqqqqqqqqqqqqq..",
"..3q@@@@@@@@@@@@qqqqqqqqqqqqqqqq..",
"  ..qq@@@@@@@@@@5qqqqqqqqqqqqqqq..",
"  ..qq@@%%@@@$@@qqqqqqqqqqqqqq::..",
"  ..qq@@5q@@5q%@qqqqqqqqqqqqq,..  ",
"  ..33=%qq%$qq%$qqqqqqqqq,:::;..  ",
"    ..qqqqqqqqqqqqqqqqqqq:....    ",
"    ..qqqqqqqqqqqqqqq<,,,;....    ",
"      .......qqqqqqqq.....        ",
"      .......,,,>,,,,.....        ",
"             ........             ",
"             ........             "
};
