/* XPM */
static char *_ab038b1912b4bfbc9686e883e651a2anVR2fURsiWJTEliY[] = {
/* columns rows colors chars-per-pixel */
"34 32 28 1 ",
"  c None",
". c black",
"X c #010101",
"o c #020202",
"O c gray8",
"+ c #F44235",
"@ c #F44336",
"# c #F44337",
"$ c #F44437",
"% c #F44538",
"& c #F4463A",
"* c #F5473A",
"= c #F54B3F",
"- c #BCBCBC",
"; c #DFDFDF",
": c #E1E1E1",
"> c #E9E9E9",
", c gray92",
"< c gray94",
"1 c #F9F9F9",
"2 c #FEFBFB",
"3 c #FFFBFB",
"4 c gray99",
"5 c #FDFDFD",
"6 c #FFFDFD",
"7 c #FEFEFE",
"8 c #FFFEFE",
"9 c white",
/* pixels */
"           ..........             ",
"           ..........             ",
"       ....::::::::::....         ",
"      .....9999999999.....        ",
"       :;;>9999999999>:::  .      ",
"    ..-999999999999999999-..      ",
"    ..:9999999999999999999-  .    ",
"  ..:9999999999999999999999:..    ",
"  ..;9199919999999999999999:..    ",
"   .:9..99..999999999999999:..    ",
"  .o>9..99..999999999999999>..    ",
"..9999..99..9999999O....9999,:..  ",
"..9999..99..9999999.....:<999:..  ",
"..999999999999999..19999..999:..  ",
"..999999999999999..99999..999:..  ",
"..99=@99@@99$@9999999999..999:..  ",
"..99@@99@@99%@9999999999..999:..  ",
"..99@@@@@@@@@@29999991..99999999..",
"..99@@@@@@@@@@29999999..99999999..",
"..99#@@@@@@@@@999999999999999999..",
"..99%@@@@@@@@@@@9999999999999999..",
"   9@ @@@@@@@@@@9999999999999999..",
"   .  @@@@@@@@@@3999999999999999..",
"  ..  @@%%@@@$@@99999999999999--..",
"   .99@@39@@39%@9999999999999:..  ",
"       %99%$99%$999999999:---     ",
"    ..9999999999999999999-....    ",
"      999999999999999>:::  ...    ",
"      .......99999999.....        ",
"       ......:::;::::....         ",
"             ........             ",
"             ........             "
};
