/* XPM */
static char *e7a1502b4bca4055a56e28650d3d9771fgVCLty28FiLIkxD[] = {
/* columns rows colors chars-per-pixel */
"32 32 125 2 ",
"   c None",
".  c #151012",
"X  c #1C1314",
"o  c #1F1518",
"O  c #241616",
"+  c #271817",
"@  c #231718",
"#  c #261919",
"$  c #2B1B1B",
"%  c #311E1E",
"&  c #37211F",
"*  c #3A231E",
"=  c #352121",
"-  c #3A2424",
";  c #3C2827",
":  c #38272B",
">  c #36292D",
",  c #3E2A29",
"<  c #3E2E32",
"1  c #3F3035",
"2  c #402724",
"3  c #452A26",
"4  c #4B2D26",
"5  c #432C2A",
"6  c #4C2D28",
"7  c #502F27",
"8  c #502F28",
"9  c #46312E",
"0  c #4A312D",
"q  c #54342B",
"w  c #5B362C",
"e  c #563A2C",
"r  c #5E382E",
"t  c #432E32",
"y  c #453231",
"u  c #4C3633",
"i  c #4F3935",
"p  c #4B353A",
"a  c #4F393E",
"s  c #593632",
"d  c #523A36",
"f  c #5D3D36",
"g  c #5D3C31",
"h  c #543739",
"j  c #543938",
"k  c #52393C",
"l  c #563D3E",
"z  c #523A3E",
"x  c #593E38",
"c  c #5A3D3C",
"v  c #583A3B",
"b  c #60392E",
"n  c #613B2F",
"m  c #623B30",
"M  c #613C30",
"N  c #623C30",
"B  c #633C30",
"V  c #633C31",
"C  c #623D31",
"Z  c #623D33",
"A  c #643D31",
"S  c #643E32",
"D  c #663F32",
"F  c #633E34",
"G  c #643E33",
"H  c #5D4031",
"J  c #5D4031",
"K  c #52413F",
"L  c #5C433C",
"P  c #5E413E",
"I  c #674134",
"U  c #664034",
"Y  c #6A4234",
"T  c #6B4335",
"R  c #6C4335",
"E  c #6C4435",
"W  c #6B4335",
"Q  c #62433C",
"!  c #60403E",
"~  c #704738",
"^  c #704838",
"/  c #714939",
"(  c #714A39",
")  c #764D3C",
"_  c #784E3C",
"`  c #794E3C",
"'  c #794F3C",
"]  c #794E3D",
"[  c #7A4F3D",
"{  c #7A503E",
"}  c #533D43",
"|  c #573C41",
" . c #553E44",
".. c #584147",
"X. c #594647",
"o. c #5F4447",
"O. c #5B4748",
"+. c #5C454B",
"@. c #5C444A",
"#. c #5D4B4B",
"$. c #5E4B4B",
"%. c #5B484C",
"&. c #5E484D",
"*. c #5F4B4C",
"=. c #6A4740",
"-. c #624649",
";. c #604C4C",
":. c #7F5541",
">. c #74534D",
",. c #675155",
"<. c #6F5050",
"1. c #6B5658",
"2. c #6E595D",
"3. c #725C5F",
"4. c #735B5C",
"5. c #735E62",
"6. c #745F61",
"7. c #746063",
"8. c #786162",
"9. c #805541",
"0. c #835742",
"q. c #835743",
"w. c #805541",
"e. c #875B46",
"r. c #8C5F49",
/* pixels */
"                                                                ",
"6 ; 8 3 - $ @ X . . . . . o O O o . . . . . . . + + % - 3 q - 6 ",
"w 4 4 w 3 $ o O O o X . . O + O X o X X . . . + % $ $ 3 w 3 6 s ",
"R q 2 3 3 + . o % # # @ X X X X O O O O o . @ % - = % 3 3 3 q T ",
"q.W G q 6 $ O X = $ $ + $ + . O O O O X X o = p ; - $ 6 q Z R q.",
"g q w w ; $ < > X 9 5 - = # O O O O X O $ % 8 | O.p : , b w w g ",
"$ 5 t O.@.t } - $ @ u u # # $ $ + $ $ % 2 8 q V h 1.&...#.#.a = ",
", 5.5.,.%.: = - q & . . O $ u ; - - - ; q b D b q = # j ;.%.l : ",
": a c Z 7 o + & 3 q & . o o 3 d y u 0 q V D q w & O . 8 m w w 3 ",
"3 w T r 4 . X $ - 3 7 O o o + % 5 - 0 b V 4 q 4 + O . 7 b R w 3 ",
"q g w w 4 . . . = - - = # = - = $ $ w q 3 q w 2 $ O . 4 w e g 0 ",
"q ( w 6 6 . . . + = - $ - - - , 5 q 8 3 q 4 * % = O . 4 6 r ( q ",
"e ) r 6 6 . . O + $ = & $ - 5 g f q 3 q q * O + % X . 4 6 w { e ",
"q ) r 6 4 . X + $ = + & % = - w m 3 8 w * % + + $ X . 4 6 w _ q ",
"e ) e 4 4 X + X + u u % = - 6 E w q s 2 O % + O O . . 4 6 e ' q ",
"q ) 4 4 4 X $ & o u L u % 6 G 0.b 8 2 + X O X X X . . 4 4 4 ( e ",
"r { 6 6 6 . O $ $ u t x q m ` ~ 8 & % % . X . . X O O 3 6 6 :.q ",
"J { w 6 * . o X O 5 Q ( n m m 8 & $ # = O O . . $ + O - 6 q w.g ",
"J :.b 3 % . X o X 6 e.r.q q w 2 % $ + & 6 * O . O % $ % 4 b w.g ",
"J :.U 0 $ . X + 3 :._ w 4 q - $ % - # = 3 q q O . O O % 0 G w.J ",
"J :.U r & . + w Y G q n q * 5 - + + % - 6 3 D s o X . = r U w.J ",
"J :.U ^ = X = r w q C r * - i + + + $ & - 2 6 D q X . - ~ G w.g ",
"9 _ n E - - q w w w q * % - % O O o O O $ & - 8 E q $ = ~ C { e ",
"= -.Z E z z w w w 2 $ + + % O X X . . . o O % $ q C a p T Z <.9 ",
"3 L 4.>.6.p U U ; $ X . O O O O . o + + . o + = - w s @.4.8.-.= ",
"* 6 } 7.i 5 C 3 + O . . . . X O O + % - $ X o O % 3 s -.2...u = ",
"3 >.4.l a } q @ . X o # X O O + @ O + + $ + & @ + - z  .v +.-.- ",
"K 4.=.I 0 a } . . O $ - % O + # # + O # + + O + + + p h D F  .< ",
"1 F G q q % # + + # O $ % = - = - % $ $ # + O $ - $ o q q F F - ",
"= b V q 7 o # $ = & $ o X O - d - 2 , 2 - = 5 d u # . 4 q F F 3 ",
"3 R q q 4 . O O O + o X O X O - i p i i i d u - % . . 4 q w E 3 ",
"- g q 3 4 . . . O O O o O O . X o X X @ # $ - $ @ X . 4 3 q b * "
};
