/* XPM */
static char *_31c4d581b94419bb24df8a02f97cbfb5TO72tQ6q22aex2w[] = {
/* columns rows colors chars-per-pixel */
"244 66 26 1 ",
"  c None",
". c #050403",
"X c #14121D",
"o c #171819",
"O c #151C36",
"+ c #282C3C",
"@ c #2D3835",
"# c #2C3B39",
"$ c #323232",
"% c #452A1B",
"& c #724B2C",
"* c #61683A",
"= c #1B2447",
"- c #222D57",
"; c #3A4542",
": c #485262",
"> c #B05B2C",
", c #B47538",
"< c #939446",
"1 c #D39741",
"2 c #EBC659",
"3 c #F8F644",
"4 c #5E718E",
"5 c #2789CD",
"6 c #73EFE8",
"7 c #85909F",
/* pixels */
"        O---====                                        O----===O                                         =----==OO                                           =---====                                                                              ",
"      O----===O                                        O---====OO   %                                    =---====OO   %                                     =----===O                                                                               ",
"     O---====OO   %                                    -...====O   %&%                                   -...====O   %&%                                   =---====OO   %                                                                           ",
"     -...====O   %&%                                   -6.6.==OO %%&,                                    -6.6.==OO %%&,                                    -...====O   %&%                                                                          ",
"     -6.6.==OO %%&,                                    -....==OO<<%%                                     -....==OO<<%%                                     -6.6.==OO %%&,                                                                           ",
"     -....==OO<<%%                                     -.....OOO><*                                      -.....OOO><*                                      -....==OO<<%%                                                                            ",
"     -.....OOO><*                                     ---..OOOO>OO*                                     ---..OOOO>OO*                                      -.....OOO><*                                                                             ",
"    ---..OOOO>OO*                                    -----=OOO1OOOO                                    -----=OOO1OOOO                                     ---..OOOO>OO*                                                                             ",
"   -----=OOO1OOOO                                    ---=====1OOOOO                                    ---=====1OOOOO                                    -----=OOO1OOOO                                                                             ",
"   ---=====1OOOOOO                                   --=====1=OOOOO                                    --=====1==OOOO                                    ---=====1OOOOO                                                                             ",
"   --=====1=OOOOOO                                   --===11==OOOOO                                    --===11===OOOO                                    --=====1=OOOOO                                                                             ",
"   --===11==OOOOOO                                   --===12==OOOOO                                    --===13====OOO                                    --===11===OOOO                                                                             ",
"   --===13==OOOOOO                                   --==1====OOOOO                                    --==1======OOO                                    --===13===OOOO                                                                             ",
"   --==>====OOOOO                                    --==>====OOOOO                                    --==>======OOO                                    --==>======OOO                                                                             ",
"   --===$===OOOOO                                    --===$===OOOOO                                    --===$=====OOO                                    --==========OO                                                                             ",
"   --===o===OOOO                                     --===$===OOOOOO                                   --===$=====OOO                                    --===$======OO                                                                             ",
"   --===o===OOOO                                     --===oo==OOOOOO                                   --==$o=====OOO                                    --===$======OOO                                                                            ",
"   --==$o====OOO                                     --==$oo===OOOOO                                   --==$o=====OOO                                    --==$o======OOO                                                                            ",
"   --==;;====OOO                                     --==;;;===OOOOO                                   --==;;=====OOO                                    --==$oo=====OOO                                                                            ",
"   --==;;====OOOO                                    --==;;;===OOOOO                                   --==;;;=====OO                                    --==@@;======OO                                                                            ",
"   --==@;====OOOO                                    --==@;;;==OOOOO                                   --==@;;=====OO                                    --==@;;;=====OO                                                                            ",
"   --==@X===OOOOO                                    --==@;XX==OOOO                                    --==@;XX====OO                                    --==@;XX=====OO                                                                            ",
"   --==@X===OOOOO                                    --==@XXX==OOO                                     --==@XXX====OO                                    --==@XXXX====OO                                                                            ",
"   --==@X====OOOOO                                    -==@XXX==OOO                                     --==@XXXX===OO                                    -==@@XXXX@===OO                                                                            ",
"   --=@@ ====OOOOO                                    -=@@XXX==OOO                                     --=@@XXXX===OO                                    -==@@XXXX@===OO                                                                            ",
"   --=++ ======OOO                                    -=++XX==OOO                                       -=++XXXX:+OOO                                     ==++XXXX++==OO                                                                            ",
"    -=+   =====OOO                                    -=+  X=OOOO                                       -=+XXXXXX:+OO                                     ==+XXXXXX:+=OO                                                                            ",
"     =+   ======OOO                                    =+   =OO+4                                        =+   XX :+ O                                      =+XXXXXX:+OOO                                                                            ",
"    :=+    ====:  OO                                  :=+   =OO++:                                      :=+      +++O                                     :=+   XX +++ O                                                                            ",
"                                                                                                                                                                                                                                                    ",
"                                                                                                                                                                                                                                                    ",
"                                                                                                                                                                                                                                                    ",
"                                                                                                                                                                                                                                                    ",
"                                                                                                                                                                                                                                                    ",
"                                                                                                                                                                                                                                                    ",
"                                                                                                                                                                                                                                                    ",
"                                                                                                                                                                                                                                                    ",
"                                                                                                                                                                                                                                                    ",
"                                                                                                         --=====                                                                                                                                    ",
"                                                       -====OO                                         ----===O                                                                                             -===OO                                  ",
"                                                     --====OO                                         ----==OO  %%                                                                                        --===OO%                                  ",
"    -===OO                                          ---===OO   %                                      -..===OO  %&                                        ======O                                        --===OO%&                                  ",
"  --===OO %                                         -.====OO ,&%                                      -...==OO %&,                                      ---====O %                                       -..==OO%,                                  ",
" ---===OO%&                                         -...==OO%&%                                       -5.5.=OO%%%                                      ---====O %,                                       -...=OO%&                                  ",
" -.====OO%&                                         -5.5.=OO*%                                         .....OOO>2OO                                    -..===OO %&                                       -5.5.=OO%&%                                ",
" -...==OO%&                                          ....=OO>7                                        -...===O>==OOOO                                  -5.5==OO %&                                        .....=O%*<                                ",
" -5.5.==O%%%                                        =...===>OOO                                      ---=====>====OOOO        =                        -....=OOO%*<   OOO                                -....===>==O                               ",
"  ....==O>%O                                       -======>OOOOO                                     ---====1======OOOO      OO                         .....=OO>*OOOOOOOOO                             --======>===OOOO                            ",
" -...===>OOOO                                     ---====1==OOOOO                                    ---===1========OOOO   OOOO                        -=..====>OOOOOOOOOOOOOO                          --=====1======OOOO                          ",
"--.====>OOOOOO                                    ----111===OOOOO                                    ----11==========OOOOOOOO==                       --======>====OOOO=OOOOOOOO                        --====1========OOOOOO                       ",
"--====1==OOOOOO                                   ----13=====OOOOO                                   ----13===========OOOOO===                        ---===11=============OOOOO                        ---=11============OOOOOOOOOO                ",
"---==1====OOOOOOO                                 ----========OOOOO           OO                     -----====================                        ---=11================OOOOO                       ---=31==============OOOOOOOOO               ",
"---11======OOOOOOO                                -----========OOOOOO        OO=                     -----===================                         ----13=================   OO                      -----===============OOOOOOO                 ",
" --31=======OOOOOOOO                              -----==========OOOOOOOO  OOO=                      ------=================                          ----==================                             ----================OO                     ",
" ----==========OOOOOOOO                           -----=============OOOOOOOO=                        -----.================                            ----=================                             ----=================OO                    ",
"  ---===============OOOOO                          ----#====================                         -----@==============  =                            ----============= ===                            ----==================OOOO                 ",
"  ----================OOOOO                         ---;;==================                           ---@;@===============                              ---=============   =                             ---;====================                  ",
"   ---=================OOOOO                         -;;;================                             ---@;;==============                               ---@===========                                  ---@@==================                   ",
"    -;=============        O                          ;;;@===========                                  -@;:: ============                                 --@;=========OO                                  --@@@================                    ",
"     ;@==============                                 ;;;@@===========                                   ;4:+  =========                                  --@;@=======  O                                  --@@XX=============                      ",
"     ;@;==============                               ;;@ @@@===============                                4:+  @=====                                     -@;@+=====    O                                 @@@XXXX===========                       ",
"      +@+======= ===                                 +@@  ...=============                                 4+    +::                                        +@++++=                                        +@@ XXXX======X                          ",
"      4+@   +     ===                                4+    ....=======                                     +      +:                                        4+    +                                        4+    XXXXXXXXXXX                        ",
"      :+            ==                               :+       .......                                              +:                                       4+                                             :+       XXXX                            ",
"      :+                                             :+           ....                                             ++                                       :+                                             :+                                       ",
"     :++                                            +++                                                           +++                                      +++                                            +++                                       "
};
