/* XPM */
static char *_e872d484edd424889fac398d86ff3a0IrebVO66B5NULAEt[] = {
/* columns rows colors chars-per-pixel */
"33 31 6 1 ",
"  c None",
". c #252028",
"X c #37434F",
"o c #5F6879",
"O c #8691A2",
"+ c #D5D4DA",
/* pixels */
"    OOOOOoooXooooOOOOXXOOOOOOOO  ",
" +OOOOOOOOOXXooOOOOO+X+OOOOOOOOO ",
"OO++++++++XX++++++++XXO+++++OO+X ",
"OOO+oooooX.oOOXooooXX.OOXXXo++XX ",
"oOO+ooooX..oOOXXoooX..OoXXXoooXX ",
"ooOOoooX..XoOoXXoooX..OoXXXoooXX ",
" oOoooXX...oOooXooo..XOOoXXoooXX ",
" oOooXXX...ooooXoo...XoooXXoooXX ",
"  oooXXX...XoooXooX.XXoooXXXooXX ",
"   ooXXX...XoooXooX.XXXooXXXooXX ",
"   oXXX......XXXoo..XXXXoX.XooX  ",
"    oX.......XXXoo....XXX..XoXX  ",
"     o..oXX...XXo... .........   ",
"         ooXX......X XXXoooo..   ",
"                                 ",
"                                 ",
"                                 ",
"                                 ",
"                                 ",
"                                 ",
"                                 ",
"                                 ",
"                                 ",
"                                 ",
"                                 ",
"                                 ",
"                                 ",
"                                 ",
"                                 ",
"                                 ",
"                                 "
};
