/* XPM */
static char *_a6bd3ad38c94607842f845d9812bd51suo7eeWzCVwqD3vA[] = {
/* columns rows colors chars-per-pixel */
"33 32 57 1 ",
"  c #141012",
". c #151012",
"X c #151113",
"o c #161113",
"O c #171213",
"+ c #181113",
"@ c #1A1213",
"# c #1C1315",
"$ c #1E1314",
"% c #1F1415",
"& c #1C1416",
"* c #201415",
"= c #201515",
"- c #261717",
"; c #271817",
": c #231718",
"> c #261718",
", c #231919",
"< c #27191A",
"1 c #281818",
"2 c #281919",
"3 c #2B1B1B",
"4 c #2C1B1B",
"5 c #2B1B1C",
"6 c #2A1E1D",
"7 c #2E1C1C",
"8 c #2E1C1D",
"9 c #301D1D",
"0 c #301E1E",
"q c #301E1F",
"w c #311F1F",
"e c #331F1F",
"r c #331F20",
"t c #332020",
"y c #342020",
"u c #372222",
"i c #372423",
"p c #382323",
"a c #392323",
"s c #382523",
"d c #3A2524",
"f c #3A2725",
"g c #3C2626",
"h c #3E2827",
"j c #3E2928",
"k c #422C2A",
"l c #422D2B",
"z c #432D2B",
"x c #422E2C",
"c c #452E2C",
"v c #47302E",
"b c #49322F",
"n c #493330",
"m c #4A3431",
"M c #4E3633",
"N c #523936",
"B c #553C38",
/* pixels */
"       +                         ",
"    =%==#@+                      ",
"   @=-<1==#  @ @@                ",
"   =-------@ #-*#                ",
"  + ------=##----=#@             ",
"   @*---->=#=------=* @          ",
"    @@@%>*#1713-----1*=#         ",
"    @    @3uupr0111---1-=        ",
"         #0dddddpp0011179*  +    ",
"      @@@>rddvMMMcpueee05=+@3<=  ",
"   +=00053pdvNBMcp977091*15005=@ ",
" +=50psie1pcbvki0711*@@@@3pp73%  ",
"  %<8883*=3kdr7--11**@#*1ep9---# ",
"   +%>;%#=#377--*@@@ #-#=-71----#",
"    %%%###@ #*-#@++   #  +@*-1-=+",
"             @#*@@        + @#=-+",
"          +@@ +-1**@+       @@=1-",
"           *===-----#@*@+ @=11-->",
"      +   @*11--------1= *11--17<",
"      @@@*------------1* *507900:",
"    +@*1113---------171# @30005=O",
"   @@-709e71-------705=   @=1-@  ",
"   *17ppp031-77757ep7-@ @@@@>-+  ",
" +@170ee1--77eppppp9*  *=#*@=*+  ",
" 188i880077upsuppd5*@ ==-#  @+   ",
">afdduadddkdupuup0=@@*>-#@   @   ",
"<kvjcklkdbbk53-31**#-#==@        ",
" 6bMNNMnp75-1---*+#--*@          ",
"O&tjkMs83------*# #-*            ",
" O%svd3;----=@@+    #            ",
"  %td3;;-=-#@@@                  ",
"    <;--1@@ #-**   +             "
};
