/* XPM */
static char *_1e3036df7534dbbdde3fa8a75e81a07D5ohnu2hcysjv4ix[] = {
/* columns rows colors chars-per-pixel */
"262 47 4 1 ",
"  c None",
". c #00FFE8",
"X c #00FFE9",
"o c #00FFEA",
/* pixels */
" XXXXXXX                        XXXXXXX                                                                                                                                                                                                                       XXXXXXX ",
" XXXXXXXX                       XXXXXXXX                                                                                                                                                                                                                      XXXXXXXX",
" XXXXXXX.                       XXXXXXX.                                                                                                                                                                                                                      XXXXXXX.",
" XXXXXXX.                       XXXXXXX.                                                                                                                                                                                                                      XXXXXXX.",
" XXXXXXXX                       XXXXXXX.                                                                                                                                                                                                                      XXXXXXX.",
" XXXXXXX.                       XXXXXXX.                                                                                                                                                                                                                      XXXXXXX.",
" XXXXXXX.                       XXXXXXX.                                                                                                                                                                                                                      XXXXXXX.",
" XXXXXXXX                       XXXXXXX.                                                                                                                                                                                                                      XXXXXXX.",
"         XX.....        X......X                                                                                                                                                                                                                              XXXXXXX.",
"         XXXXXXXX       XXXXXXXX                                                                                                                                                                                                                              XXXXXXX.",
"         XXXXXXXX       .XXXXXXX                                                                                                                                                                                                                              XXXXXXX.",
"         XXXXXXXX       .XXXXXXX                                                                                                                                                                                                                              XXXXXXX.",
"         XXXXXXXX       .XXXXXXX                    XXXXXXXXXXXXXXX            XXXXXXXX               XXXXXXXX                                                                              XXXXXXXXXXXXXXX            XXXXXXXXXXXXXXXXXXXXXXXXXXX            XXXXXXX.",
"         XXXXXXXX       .XXXXXXX                    XXXXXXXXXXXXXXX            XXXXXXXX               XXXXXXXX                                                                              XXXXXXXXXXXXXXX            XXXXXXXXXXXXXXXXXXXXXXXXXXX            XXXXXXX.",
"         XXXXXXXX       .XXXXXXX                    XXXXXXXXXXXXXXX            XXXXXXXX               XXXXXXXX                                                                              XXXXXXXXXXXXXXX            XXXXXXXXXXXXXXXXXXXXXXXXXXX            XXXXXXX.",
"         XXXXXXXX       .XXXXXXX                    XXXXXXXXXXXXXXX            XXXXXXX.               .XXXXXXX                                                                              XXXXXXXXXXXXXXX            XXXXXXXXXXXXXXXXXXXXXXXXXXX            XXXXXXX.",
"                XXXXXXXX                            XXXXXXXXXXXXXXX            XXXXXXXX               XXXXXXXX                       XXXXXXXX                           XXXXXXXX            XXXXXXXXXXXXXXX            XXXXXXXXXXXXXXXXXXXXXXXXXXX            XXXXXXX.",
"                XXXXXXXX                            XXXXXXXXXXXXXXX            XXXXXXX.               .XXXXXXX                       XXXXXXX.                           XXXXXXXX            XXXXXXXXXXXXXXX            XXXXXXXXXXXXXXXXXXXXXXXXXXX            XXXXXXX.",
"                XXXXXXXX                            XXXXXXXXXXXXXXX            XXXXXXX.               .XXXXXXX                       XXXXXXX.                           XXXXXXXX            XXXXXXXXXXXXXXX            XXXXXXXXXXXXXXXXXXXXXXXXXXX            XXXXXXX.",
"                XXXXXXXX                            XXXXXXXXXXXXXXX            XXXXXXXX               .XXXXXXX                       XXXXXXXX                           XXXXXXXX            XXXXXXXXXXXXXXX            XXXXXXXXXXXXXXXXXXXXXXXXXXX            XXXXXXX.",
"                XXXXXXXX                    XXXXXXX.               .XXXXXXX    XXXXXXX.               XXXXXXXX                       XXXXXXX.                           XXXXXXXX    XXXXXXXX               .XXXXXXX    XXXXXXXX                   XXXXXXXX    XXXXXXX.",
"                XXXXXXXX                    XXXXXXX.               XXXXXXXX    XXXXXXX.               .XXXXXXX                       XXXXXXXX                           XXXXXXXX    XXXXXXX.               XXXXXXXX    XXXXXXX.                   XXXXXXXX    XXXXXXX.",
"                XXXXXXXX                    XXXXXXX.               .XXXXXXX    XXXXXXXX               .XXXXXXX                       XXXXXXX.                           XXXXXXXX    XXXXXXX.               .XXXXXXX    XXXXXXX.                   XXXXXXXX    XXXXXXX.",
"                XXXXXXXX                    XXXXXXXX               .XXXXXXX    XXXXXXX.               .XXXXXXX                       XXXXXXXX                           XXXXXXXX    XXXXXXX.               .XXXXXXX    XXXXXXXX                   XXXXXXXX    XXXXXXX.",
"                XXXXXXXX                    XXXXXXX.               .XXXXXXX    XXXXXXX.               XXXXXXXX                       XXXXXXX.                           XXXXXXXX    XXXXXXX.               XXXXXXXX    XXXXXXX.                   XXXXXXXX    XXXXXXX.",
"                XXXXXXXX                    XXXXXXX.               XXXXXXXX    XXXXXXXX               .XXXXXXX                       XXXXXXXX                           XXXXXXXX    XXXXXXX.               .XXXXXXX    XXXXXXX.                   XXXXXXXX    XXXXXXX.",
"                XXXXXXXX                    XXXXXXX.               .XXXXXXX    XXXXXXX.               .XXXXXXX                       XXXXXXX.                           XXXXXXXX    XXXXXXX.               XXXXXXXX    XXXXXXXX                   XXXXXXXX    XXXXXXX.",
"                XXXXXXXX                    XXXXXXXX               .XXXXXXX    XXXXXXXX               .XXXXXXX                       XXXXXXX.                           XXXXXXXX    XXXXXXX.               .XXXXXXX    XXXXXXX.                   XXXXXXXX    XXXXXXX.",
"                XXXXXXXX                    XXXXXXX.               .XXXXXXX    XXXXXXX.               .XXXXXXX                       XXXXXXXX           XXXXXXXX        XXXXXXXX    XXXXXXX.               XXXXXXXX    XXXXXXX.                   XXXXXXXX    XXXXXXX.",
"                XXXXXXXX                    XXXXXXX.               XXXXXXXX    XXXXXXXX               .XXXXXXX                       XXXXXXX.           XXXXXXXX        XXXXXXXX    XXXXXXX.               .XXXXXXX    XXXXXXXX                   XXXXXXXX    XXXXXXX.",
"                XXXXXXXX                    XXXXXXX.               .XXXXXXX    XXXXXXX.               XXXXXXXX                       XXXXXXX.           XXXXXXXX        XXXXXXXX    XXXXXXX.               .XXXXXXX    XXXXXXXX                   XXXXXXXX    XXXXXXX.",
"                XXXXXXXX                    XXXXXXX.               XXXXXXXX    XXXXXXXX               .XXXXXXX                       XXXXXXXX           XXXXXXXX        XXXXXXXX    XXXXXXXX               XXXXXXXX    XXXXXXX.                   XXXXXXXX    XXXXXXX.",
"                XXXXXXXX                    XXXXXXXX               .XXXXXXX    XXXXXXXX               .XXXXXXX                       XXXXXXXX           XXXXXXXX        XXXXXXXX    XXXXXXXX               .XXXXXXX    XXXXXXXX                   XXXXXXXX    XXXXXXXX",
"                XXXXXXXX                    XXXXXXX.               XXXXXXXX    XXXXXXXX               .XXXXXXX                       XXXXXXX.           XXXXXXXX        XXXXXXXX    XXXXXXX.               .XXXXXXX    XXXXXXX.                   XXXXXXXX    XXXXXXX.",
"                XXXXXXXX                    XXXXXXX.               .XXXXXXX    XXXXXXX.               .XXXXXXX                       XXXXXXXX           XXXXXXXX        XXXXXXXX    XXXXXXX.               XXXXXXXX    XXXXXXX.                   XXXXXXXX    XXXXXXXX",
"                XXXXXXXX                    XXXXXXX.               .XXXXXXX    XXXXXXXX               .XXXXXXX                       XXXXXXX.           XXXXXXXX        XXXXXXXX    XXXXXXX.               XXXXXXXX    XXXXXXXX                   XXXXXXXX            ",
"                XXXXXXXX                    XXXXXXX.               .XXXXXXX    XXXXXXX.               XXXXXXXX                       XXXXXXX.           XXXXXXXX        XXXXXXXX    XXXXXXX.               XXXXXXXX    XXXXXXX.                   XXXXXXXX            ",
"                XXXXXXXX                    XXXXXXX.               XXXXXXXX    XXXXXXXX               .XXXXXXX                       XXXXXXX.           XXXXXXXX        XXXXXXXX    XXXXXXX.               .XXXXXXX    XXXXXXX.                   XXXXXXXX            ",
"                XXXXXXXX                    XXXXXXXX               XXXXXXXX    XXXXXXX.               XXXXXXXX                       XXXXXXXX           XXXXXXXX        XXXXXXXX    XXXXXXXX               XXXXXXXX    XXXXXXXX                   XXXXXXXX            ",
"                XXXXXXXX                            X.X..X..X..X..X                    X..X..X.XX..X..XXXXXXXX                               ..X..X..X.XXXXXXXXXXXX.X.XXXXXXXXXX            X.X.X..X..X.X.X            XXXXXXX.                   XXXXXXXX    .X..XXXX",
"                XXXXXXXX                            XXXXXXXXXXXXXXX                    XXXXXXXXXXXXXXXXXXXXXXX                               XXXXXXXXXXXXXXXXXXXXXXXXXXXXXXXXXXX            XXXXXXXXXXXXXXX            XXXXXXX.                   XXXXXXXX    XXXXXXX.",
"                XXXXXXXX                            XXXXXXXXXXXXXXX                    XXXXXXXXXXXXXXXXXXXXXXX                               XXXXXXXXXXXXXXXXXXXXXXXXXXXXXXXXXXX            XXXXXXXXXXXXXXX            XXXXXXXX                   XXXXXXXX    XXXXXXX.",
"                XXXXXXXX                            XXXXXXXXXXXXXXX                    XXXXXXXXXXXXXXXXXXXXXXX                               XXXXXXXXXXXXXXXXXXXXXXXXXXXXXXXXXXX            XXXXXXXXXXXXXXX            XXXXXXX.                   XXXXXXXX    XXXXXXX.",
"                XXXXXXXX                            XXXXXXXXXXXXXXX                    XXXXXXXXXXXXXXXXXXXXXXX                               XXXXXXXXXXXXXXXXXXXXXXXXXXXXXXXXXXX            XXXXXXXXXXXXXXX            XXXXXXX.                   XXXXXXXX    XXXXXXX.",
"                XXXXXXXX                            XXXXXXXXXXXXXXX                    XXXXXXXXXXXXXXXXXXXXXXX                               XXXXXXXXXXXXXXXXXXXXXXXXXXXXXXXXXXX            XXXXXXXXXXXXXXX            XXXXXXXX                   XXXXXXXX    XXXXXXX.",
"                XXXXXXXX                            XXXXXXXXXXXXXXX                    XXXXXXXXXXXXXXXXXXXXXXX                               XXXXXXXXXXXXXXXXXXXXXXXXXXXXXXXXXXX            XXXXXXXXXXXXXXX            XXXXXXX.                   XXXXXXXX    XXXXXXX.",
"                XXXXXXXX                            XXXXXXXXXXXXXXX                    XXXXXXXXXXXXXXXXXXXXXXX                               XXXXXXXXXXXXXXXXXXXXXXXXXXXXXXXXXXX            XXXXXXXXXXXXXXX            XXXXXXXX                   XXXXXXXX    XXXXXXX."
};
